# xmcd CD database file
#
# Track frame offsets:
#	150
#	28887
#	61323
#	83098
#	101117
#	122595
#	134086
#	162503
#
# Disc length: 2617 seconds
#
# Revision: 2
# Processed by: cddbd v1.4PL0 Copyright (c) Steve Scherf et al.
# Submitted via: CDex 1.50Beta7
#
DISCID=6f0a3708
DTITLE=Lightnin' Sam Hopkins - Lightnin' In New York
DYEAR=1960
DGENRE=Blues
TTITLE0=Take It Easy
TTITLE1=Mighty Crazy
TTITLE2=Your Own Fault, Baby, to Treat Me the Way You
TTITLE3=I've had My Fun If I Don't Get Well No More
TTITLE4=The Troubled Blues
TTITLE5=Lightnin's Piano Boogie
TTITLE6=Wonder Why
TTITLE7=Mister Charlie
EXTD=YEAR: 1960
EXTT0=
EXTT1=
EXTT2=
EXTT3=
EXTT4=
EXTT5=
EXTT6=
EXTT7=
PLAYORDER=
